<?xml version="1.0" encoding="utf-8"?>
<!-- Generator: Adobe Illustrator 16.0.0, SVG Export Plug-In . SVG Version: 6.00 Build 0)  -->
<!DOCTYPE svg PUBLIC "-//W3C//DTD SVG 1.1//EN" "http://www.w3.org/Graphics/SVG/1.1/DTD/svg11.dtd">
<svg version="1.1" id="Capa_1" xmlns="http://www.w3.org/2000/svg" xmlns:xlink="http://www.w3.org/1999/xlink" x="0px" y="0px"
	 width="118.436px" height="66.5px" viewBox="0 0 118.436 66.5" enable-background="new 0 0 118.436 66.5" xml:space="preserve">
<rect fill="none" width="118.436" height="66.5"/>
<g>
	<path fill="#FFFFFF" d="M15.475,26.935c-0.305-0.024-0.588-0.102-0.852-0.234c-0.264-0.132-0.492-0.303-0.685-0.513
		c-0.193-0.209-0.346-0.456-0.457-0.738c-0.111-0.282-0.167-0.579-0.167-0.891v-2.196c-0.059-0.204-0.149-0.378-0.272-0.522
		c-0.123-0.144-0.296-0.24-0.518-0.288c0.047-0.084,0.105-0.156,0.176-0.216c0.058-0.06,0.137-0.111,0.237-0.153
		c0.099-0.042,0.225-0.063,0.377-0.063v-5.58c0-0.312,0.056-0.609,0.167-0.891c0.111-0.282,0.263-0.528,0.457-0.738
		c0.193-0.21,0.421-0.381,0.685-0.513c0.263-0.132,0.547-0.21,0.852-0.234h3.318h0.035c0.316,0,0.615,0.063,0.896,0.189
		s0.527,0.297,0.737,0.513c0.211,0.216,0.377,0.468,0.5,0.756s0.185,0.594,0.185,0.918v9.018c0,0.324-0.062,0.63-0.185,0.918
		s-0.29,0.54-0.5,0.756c-0.21,0.216-0.457,0.387-0.737,0.513s-0.579,0.189-0.896,0.189h-0.035h-3.125h-0.035H15.475z M15.668,23.533
		c0,0.276,0.094,0.51,0.281,0.702c0.187,0.192,0.415,0.288,0.685,0.288h1.422c0.199,0,0.372-0.075,0.518-0.225
		c0.146-0.15,0.219-0.327,0.219-0.531v-7.2c0-0.276-0.096-0.513-0.29-0.711c-0.193-0.198-0.43-0.291-0.711-0.279h-1.124
		c-0.281-0.012-0.518,0.081-0.711,0.279c-0.193,0.198-0.29,0.436-0.29,0.711V23.533z"/>
	<path fill="#FFFFFF" d="M23.358,22.453c-0.059-0.204-0.149-0.381-0.272-0.531c-0.123-0.15-0.296-0.243-0.518-0.279
		c0.046-0.083,0.105-0.156,0.175-0.216c0.059-0.06,0.138-0.111,0.237-0.153c0.099-0.042,0.225-0.063,0.377-0.063v-8.046h2.353
		v11.358h4.547v2.412H25.71h-2.353v-2.412V22.453z"/>
	<path fill="#FFFFFF" d="M32.136,22.489c-0.07-0.204-0.164-0.381-0.281-0.531c-0.117-0.15-0.287-0.243-0.509-0.279
		c0.046-0.084,0.105-0.156,0.175-0.216c0.059-0.06,0.138-0.111,0.237-0.153c0.099-0.042,0.225-0.063,0.377-0.063v-5.634v-2.412
		h5.478h0.018c0.328,0,0.632,0.063,0.913,0.189s0.527,0.297,0.737,0.513c0.211,0.216,0.377,0.468,0.5,0.756s0.184,0.594,0.184,0.918
		v9.018c0,0.324-0.061,0.63-0.184,0.918s-0.29,0.54-0.5,0.756c-0.21,0.216-0.457,0.387-0.737,0.513s-0.585,0.189-0.913,0.189h-0.018
		h-3.125h-2.353v-2.412V22.489z M34.489,24.559h2.147c0.268,0,0.498-0.096,0.689-0.288c0.192-0.191,0.288-0.426,0.288-0.702v-6.966
		c0-0.276-0.096-0.51-0.288-0.702c-0.192-0.192-0.422-0.288-0.689-0.288h-2.147V24.559z"/>
	<path fill="#FFFFFF" d="M53.45,26.935h0.018H53.45h-2.335l-2.23-8.694v8.694h-2.353v-4.572c-0.059-0.204-0.146-0.378-0.263-0.522
		c-0.117-0.144-0.293-0.24-0.527-0.288c0.046-0.084,0.105-0.156,0.175-0.216c0.059-0.06,0.138-0.111,0.237-0.153
		c0.099-0.042,0.225-0.063,0.377-0.063v-7.956h1.053h1.299h1.053l2.353,9.18l2.335-9.18h1.053h1.299h1.053v13.77h-2.353v-8.694
		L53.45,26.935z"/>
	<path fill="#FFFFFF" d="M65.792,24.037h-2.984l-0.509,2.934h-2.37l0.79-4.626l-0.018,0.018c-0.07-0.204-0.164-0.381-0.281-0.531
		c-0.117-0.15-0.293-0.249-0.527-0.297c0.046-0.084,0.105-0.156,0.175-0.216c0.059-0.06,0.141-0.111,0.246-0.153
		c0.105-0.042,0.234-0.063,0.386-0.063c0.035,0,0.073,0.003,0.114,0.009c0.041,0.006,0.073,0.009,0.096,0.009l1.37-8.064h0.632
		h1.019h0.72h1.053h0.597l2.37,13.914h-2.388L65.792,24.037z M65.388,21.625l-1.036-6.138h-0.105l-1.036,6.138H65.388z"/>
	<path fill="#FFFFFF" d="M76.571,13.201c0.316,0,0.615,0.063,0.896,0.189s0.527,0.297,0.737,0.513
		c0.211,0.216,0.377,0.468,0.5,0.756s0.185,0.594,0.185,0.918v3.618c0,0.324-0.062,0.63-0.185,0.918s-0.29,0.54-0.5,0.756
		c-0.21,0.216-0.457,0.387-0.737,0.513s-0.579,0.189-0.896,0.189v0.018l1.598,5.382h-2.335l-1.598-5.31h-0.825v5.31h-2.353v-4.482
		c-0.059-0.204-0.149-0.381-0.272-0.531c-0.123-0.15-0.296-0.243-0.518-0.279c0.047-0.084,0.105-0.156,0.176-0.216
		c0.058-0.06,0.137-0.111,0.237-0.153c0.099-0.042,0.225-0.063,0.377-0.063v-5.634v-2.412h5.478l0.035,0.072V13.201z M73.411,19.249
		h2.3c0.234,0,0.436-0.087,0.605-0.261c0.169-0.174,0.254-0.381,0.254-0.621v-1.89c0-0.24-0.085-0.444-0.254-0.612
		c-0.17-0.168-0.372-0.252-0.605-0.252h-2.3V19.249z"/>
	<path fill="#FFFFFF" d="M84.384,21.625h-1.124v5.31h-2.353v-4.482c-0.059-0.204-0.146-0.381-0.263-0.531
		c-0.117-0.15-0.293-0.243-0.527-0.279c0.046-0.083,0.105-0.156,0.175-0.216c0.059-0.06,0.138-0.111,0.237-0.153
		c0.099-0.042,0.225-0.063,0.377-0.063v-8.046h2.353v6.048h0.878l2.177-6.048h2.353l-2.44,6.75l2.089,7.02h-2.353L84.384,21.625z"/>
	<path fill="#FFFFFF" d="M89.915,21.976c-0.117-0.15-0.293-0.243-0.527-0.279c0.046-0.084,0.105-0.156,0.175-0.216
		c0.059-0.06,0.138-0.11,0.237-0.153c0.099-0.042,0.225-0.063,0.377-0.063v-1.998v-3.636v-2.412h6.9v2.412h-4.547v3.636h2.809v2.412
		h-2.809v2.898h4.547v2.412h-6.9v-2.412v-2.07C90.12,22.303,90.032,22.126,89.915,21.976z"/>
	<path fill="#FFFFFF" d="M103.486,13.201h2.283v2.412h-2.283v11.358h-2.353v-4.482c-0.059-0.204-0.146-0.381-0.263-0.531
		c-0.117-0.15-0.292-0.243-0.527-0.279c0.047-0.084,0.105-0.156,0.176-0.216c0.059-0.06,0.137-0.111,0.237-0.153
		c0.1-0.042,0.226-0.063,0.377-0.063v-5.634h-2.265v-2.412h2.265H103.486z"/>
	<path fill="#FFFFFF" d="M26.386,42.505v-2.07c-0.059-0.204-0.146-0.381-0.263-0.531c-0.117-0.15-0.293-0.243-0.527-0.279
		c0.046-0.083,0.105-0.156,0.176-0.216c0.058-0.06,0.137-0.111,0.237-0.153c0.099-0.042,0.225-0.063,0.377-0.063v-5.634v-2.412
		h5.495h0.018c0.316,0,0.617,0.063,0.904,0.189c0.287,0.126,0.536,0.297,0.746,0.513c0.211,0.216,0.377,0.468,0.5,0.756
		c0.123,0.288,0.184,0.594,0.184,0.918v2.466c0,0.432-0.108,0.831-0.325,1.197c-0.217,0.366-0.495,0.651-0.834,0.855
		c0.339,0.205,0.617,0.486,0.834,0.846c0.216,0.36,0.325,0.756,0.325,1.188v2.466c0,0.324-0.059,0.625-0.175,0.9
		c-0.117,0.276-0.275,0.522-0.474,0.738c-0.199,0.216-0.433,0.39-0.702,0.522c-0.27,0.132-0.556,0.204-0.86,0.216h-3.283h-2.353
		V42.505z M28.738,37.195h2.458c0.199,0,0.366-0.069,0.5-0.207c0.134-0.138,0.202-0.309,0.202-0.513l-0.018-2.196
		c0-0.204-0.067-0.375-0.202-0.513c-0.135-0.138-0.302-0.207-0.5-0.207h-2.44V37.195z M28.738,42.505h2.44
		c0.199,0,0.369-0.069,0.509-0.207c0.14-0.138,0.21-0.309,0.21-0.513l-0.018-1.458c0-0.204-0.067-0.375-0.202-0.513
		c-0.135-0.138-0.302-0.207-0.5-0.207h-2.44V42.505z"/>
	<path fill="#FFFFFF" d="M42.309,31.201c0.316,0,0.615,0.063,0.896,0.189s0.527,0.297,0.737,0.513
		c0.211,0.216,0.377,0.468,0.5,0.756s0.185,0.594,0.185,0.918v3.618c0,0.324-0.062,0.63-0.185,0.918s-0.29,0.54-0.5,0.756
		c-0.21,0.216-0.457,0.387-0.737,0.513s-0.579,0.189-0.896,0.189v0.018l1.598,5.382h-2.335l-1.598-5.31h-0.825v5.31h-2.353v-4.482
		c-0.059-0.204-0.149-0.381-0.272-0.531c-0.123-0.15-0.296-0.243-0.518-0.279c0.047-0.084,0.105-0.156,0.176-0.216
		c0.058-0.06,0.137-0.111,0.237-0.153c0.099-0.042,0.225-0.063,0.377-0.063v-5.634v-2.412h5.478l0.035,0.072V31.201z M39.149,37.249
		h2.3c0.234,0,0.436-0.087,0.605-0.261c0.169-0.174,0.254-0.381,0.254-0.621v-1.89c0-0.24-0.085-0.444-0.254-0.612
		c-0.17-0.168-0.372-0.252-0.605-0.252h-2.3V37.249z"/>
	<path fill="#FFFFFF" d="M46.383,39.976c-0.117-0.15-0.293-0.243-0.527-0.279c0.046-0.084,0.105-0.156,0.175-0.216
		c0.059-0.06,0.138-0.11,0.237-0.153c0.099-0.042,0.225-0.063,0.377-0.063v-1.998v-3.636v-2.412h6.9v2.412h-4.547v3.636h2.809v2.412
		h-2.809v2.898h4.547v2.412h-6.9v-2.412v-2.07C46.587,40.303,46.5,40.126,46.383,39.976z"/>
	<path fill="#FFFFFF" d="M67.925,31.201h2.353l-2.335,13.77h-0.615H66.31h-0.703h-1.036h-0.597l-1.159-6.858l-1.176,6.858h-0.614
		h-1.019h-0.702h-1.036h-0.597l-0.772-4.572h-0.018c-0.059-0.204-0.146-0.378-0.263-0.522c-0.117-0.144-0.293-0.24-0.527-0.288
		c0.047-0.072,0.094-0.132,0.141-0.18c0.105-0.108,0.257-0.186,0.457-0.234l-1.352-7.974h2.353l1.914,11.358h0.105l1.914-11.358
		h0.018h2.335h0.018l1.914,11.358h0.105L67.925,31.201z"/>
	<path fill="#FFFFFF" d="M71.138,39.958c-0.117-0.15-0.293-0.243-0.527-0.279c0.047-0.084,0.105-0.156,0.176-0.216
		c0.058-0.06,0.137-0.111,0.237-0.153c0.1-0.042,0.225-0.063,0.377-0.063v-1.998v-3.636v-2.412h6.9v2.412h-4.547v3.636h2.827v2.412
		h-2.827v2.898h4.547v2.412h-6.9v-2.394v-2.088C71.342,40.285,71.254,40.108,71.138,39.958z"/>
	<path fill="#FFFFFF" d="M85.727,31.201c0.316,0,0.615,0.063,0.896,0.189s0.527,0.297,0.737,0.513
		c0.211,0.216,0.377,0.468,0.5,0.756s0.185,0.594,0.185,0.918v3.618c0,0.324-0.062,0.63-0.185,0.918s-0.29,0.54-0.5,0.756
		c-0.21,0.216-0.457,0.387-0.737,0.513s-0.579,0.189-0.896,0.189v0.018l1.598,5.382H84.99l-1.598-5.31h-0.825v5.31h-2.353v-4.482
		c-0.059-0.204-0.149-0.381-0.272-0.531c-0.123-0.15-0.296-0.243-0.518-0.279c0.047-0.084,0.105-0.156,0.176-0.216
		c0.058-0.06,0.137-0.111,0.237-0.153c0.099-0.042,0.225-0.063,0.377-0.063v-5.634v-2.412h5.478l0.035,0.072V31.201z M82.567,37.249
		h2.3c0.234,0,0.436-0.087,0.605-0.261c0.169-0.174,0.254-0.381,0.254-0.621v-1.89c0-0.24-0.085-0.444-0.254-0.612
		c-0.17-0.168-0.372-0.252-0.605-0.252h-2.3V37.249z"/>
	<path fill="#FFFFFF" d="M95.471,31.183h2.353l-3.055,8.46v5.31h-2.353v-4.482c-0.07-0.204-0.164-0.381-0.281-0.531
		c-0.117-0.15-0.287-0.243-0.509-0.279c0.035-0.06,0.082-0.12,0.141-0.18c0.058-0.047,0.125-0.096,0.202-0.144
		s0.178-0.084,0.307-0.108l-2.932-8.046h2.353l1.896,5.202L95.471,31.183z"/>
</g>
<rect x="80.775" y="52.319" fill="#FFFFFF" width="8.294" height="0.992"/>
<rect x="34.859" y="52.319" fill="#FFFFFF" width="8.295" height="0.992"/>
<g>
	<path fill="#FFFFFF" d="M49.604,54.411c0.074,0,0.149-0.009,0.224-0.028s0.144-0.047,0.206-0.086
		c0.062-0.039,0.112-0.088,0.151-0.148c0.039-0.059,0.059-0.13,0.059-0.211c0-0.096-0.024-0.177-0.073-0.244
		c-0.049-0.067-0.113-0.126-0.191-0.178c-0.079-0.052-0.17-0.098-0.271-0.139c-0.102-0.041-0.206-0.083-0.312-0.126
		c-0.106-0.043-0.209-0.09-0.31-0.142c-0.101-0.052-0.191-0.113-0.27-0.183s-0.143-0.154-0.191-0.252
		c-0.049-0.098-0.073-0.214-0.073-0.349c0-0.084,0.016-0.176,0.046-0.277s0.084-0.195,0.16-0.283s0.178-0.162,0.307-0.221
		c0.128-0.06,0.291-0.089,0.487-0.089c0.053,0,0.11,0.004,0.17,0.012s0.122,0.022,0.184,0.042c0.063,0.021,0.126,0.047,0.189,0.081
		c0.063,0.033,0.125,0.074,0.186,0.123l-0.014-0.229h0.246v1.052H50.33c-0.007-0.104-0.027-0.206-0.059-0.308
		c-0.031-0.102-0.077-0.193-0.137-0.274c-0.06-0.081-0.136-0.147-0.228-0.198c-0.091-0.051-0.2-0.076-0.326-0.076
		c-0.091,0-0.172,0.012-0.243,0.037c-0.071,0.024-0.13,0.058-0.179,0.1c-0.049,0.042-0.085,0.09-0.11,0.145
		c-0.025,0.055-0.037,0.112-0.037,0.173c0,0.098,0.024,0.182,0.073,0.252c0.048,0.07,0.113,0.133,0.193,0.188
		s0.171,0.104,0.274,0.148c0.103,0.044,0.208,0.089,0.314,0.135c0.107,0.046,0.211,0.095,0.314,0.146s0.194,0.113,0.274,0.183
		s0.144,0.152,0.193,0.246c0.048,0.094,0.073,0.205,0.073,0.334c0,0.15-0.029,0.281-0.088,0.393s-0.137,0.203-0.233,0.275
		s-0.205,0.126-0.326,0.161c-0.121,0.035-0.244,0.053-0.367,0.053c-0.198,0-0.373-0.027-0.523-0.081
		c-0.151-0.054-0.274-0.115-0.372-0.183l0.02,0.208h-0.246l-0.035-1.031h0.18c0.008,0.125,0.036,0.239,0.084,0.343
		c0.048,0.104,0.112,0.193,0.191,0.269c0.079,0.075,0.169,0.133,0.271,0.175C49.382,54.39,49.49,54.411,49.604,54.411z"/>
	<path fill="#FFFFFF" d="M51.562,52.272c0-0.063,0.001-0.123,0.004-0.182c0.002-0.059,0.009-0.128,0.019-0.208l-0.415,0.023v-0.252
		c0.127,0,0.233-0.004,0.317-0.013c0.083-0.009,0.152-0.021,0.206-0.037s0.095-0.033,0.125-0.051
		c0.029-0.019,0.056-0.039,0.079-0.06h0.168v2.423c0,0.08-0.001,0.151-0.003,0.212s-0.009,0.126-0.02,0.195l0.369-0.018v0.246
		h-1.194v-0.179c0.089,0,0.157-0.018,0.204-0.054s0.081-0.086,0.102-0.151s0.033-0.142,0.036-0.231s0.004-0.188,0.004-0.296V52.272z
		 M52.119,50.543c0,0.049-0.009,0.095-0.027,0.138s-0.041,0.081-0.07,0.113c-0.028,0.032-0.062,0.057-0.1,0.075
		s-0.078,0.026-0.12,0.026c-0.042,0-0.082-0.009-0.12-0.026s-0.072-0.042-0.102-0.075c-0.03-0.032-0.052-0.07-0.069-0.113
		c-0.016-0.043-0.024-0.089-0.024-0.138c0-0.051,0.008-0.098,0.025-0.142s0.041-0.083,0.07-0.116
		c0.029-0.033,0.063-0.059,0.101-0.078s0.079-0.028,0.123-0.028s0.084,0.009,0.122,0.028s0.07,0.044,0.099,0.078
		c0.028,0.033,0.051,0.072,0.067,0.116S52.119,50.493,52.119,50.543z"/>
	<path fill="#FFFFFF" d="M53.211,52.272c0-0.063,0-0.126,0.002-0.19s0.009-0.131,0.02-0.199l-0.414,0.023v-0.252
		c0.127,0,0.231-0.004,0.312-0.013s0.144-0.021,0.193-0.037c0.048-0.016,0.086-0.033,0.113-0.051
		c0.026-0.019,0.051-0.039,0.074-0.06h0.168c0.004,0.045,0.008,0.096,0.013,0.154c0.004,0.058,0.009,0.127,0.013,0.209
		c0.063-0.057,0.132-0.109,0.207-0.158s0.154-0.091,0.236-0.127s0.166-0.064,0.253-0.085c0.086-0.021,0.172-0.031,0.256-0.031
		c0.339,0,0.586,0.109,0.743,0.327s0.234,0.556,0.234,1.015v1.119c0,0.08-0.001,0.151-0.003,0.212s-0.008,0.126-0.02,0.195
		l0.369-0.018v0.246h-1.194v-0.179c0.089,0,0.158-0.018,0.205-0.054c0.046-0.036,0.08-0.086,0.101-0.151s0.033-0.142,0.036-0.231
		c0.003-0.09,0.004-0.188,0.004-0.296v-0.838c-0.004-0.346-0.059-0.606-0.166-0.781c-0.107-0.175-0.276-0.262-0.509-0.262
		c-0.07,0-0.141,0.011-0.211,0.032s-0.138,0.049-0.203,0.083c-0.065,0.034-0.126,0.075-0.183,0.122s-0.107,0.098-0.148,0.152
		c0.002,0.035,0.003,0.073,0.003,0.113s0,0.081,0,0.122l-0.006,1.532c0,0.08-0.001,0.151-0.003,0.212s-0.009,0.126-0.02,0.195
		l0.369-0.018v0.246h-1.194v-0.179c0.089,0,0.157-0.018,0.204-0.054s0.08-0.086,0.1-0.151s0.031-0.142,0.034-0.231
		s0.005-0.188,0.007-0.296L53.211,52.272z"/>
	<path fill="#FFFFFF" d="M58.548,52c-0.027-0.07-0.065-0.126-0.117-0.168c-0.051-0.042-0.107-0.075-0.167-0.098
		s-0.12-0.039-0.18-0.045s-0.11-0.01-0.15-0.01c-0.133,0-0.258,0.028-0.373,0.083s-0.215,0.137-0.298,0.245
		c-0.084,0.107-0.15,0.241-0.199,0.401c-0.049,0.16-0.073,0.344-0.073,0.551c0,0.199,0.024,0.383,0.073,0.552
		c0.048,0.169,0.117,0.314,0.204,0.437c0.088,0.122,0.193,0.217,0.317,0.286s0.261,0.103,0.412,0.103
		c0.091,0,0.182-0.013,0.271-0.04c0.089-0.026,0.174-0.063,0.254-0.11c0.08-0.047,0.154-0.102,0.221-0.164
		c0.068-0.063,0.125-0.13,0.173-0.202l0.151,0.12c-0.078,0.125-0.167,0.232-0.267,0.321s-0.205,0.162-0.314,0.22
		c-0.109,0.058-0.22,0.1-0.332,0.127c-0.111,0.027-0.216,0.041-0.315,0.041c-0.198,0-0.385-0.035-0.56-0.104s-0.329-0.17-0.46-0.302
		c-0.132-0.132-0.235-0.293-0.312-0.485s-0.114-0.409-0.114-0.653c0-0.139,0.017-0.275,0.05-0.41s0.082-0.263,0.145-0.385
		c0.063-0.122,0.139-0.235,0.229-0.34c0.089-0.104,0.191-0.195,0.304-0.271s0.237-0.136,0.372-0.179s0.276-0.064,0.427-0.064
		c0.162,0,0.31,0.021,0.443,0.062s0.248,0.096,0.343,0.164s0.168,0.147,0.22,0.236c0.051,0.089,0.077,0.182,0.077,0.28
		c0,0.086-0.023,0.16-0.07,0.221c-0.046,0.062-0.114,0.093-0.201,0.095c-0.052,0.002-0.094-0.006-0.129-0.025
		c-0.034-0.019-0.062-0.042-0.083-0.069s-0.037-0.057-0.046-0.089c-0.01-0.032-0.014-0.061-0.014-0.086
		c0-0.039,0.006-0.08,0.019-0.123C58.491,52.077,58.514,52.037,58.548,52z"/>
	<path fill="#FFFFFF" d="M62.149,52.782l-2.061,0.035c-0.002,0.231,0.015,0.44,0.051,0.628c0.037,0.188,0.094,0.348,0.172,0.481
		c0.078,0.133,0.178,0.236,0.301,0.309c0.123,0.072,0.27,0.108,0.441,0.108c0.091,0,0.185-0.013,0.28-0.038
		c0.095-0.026,0.187-0.061,0.275-0.105c0.089-0.044,0.17-0.097,0.245-0.159c0.074-0.062,0.136-0.128,0.186-0.199l0.143,0.12
		c-0.08,0.125-0.173,0.231-0.279,0.318c-0.105,0.087-0.215,0.158-0.329,0.212s-0.227,0.094-0.341,0.119s-0.221,0.037-0.32,0.037
		c-0.202,0-0.39-0.037-0.564-0.111s-0.326-0.181-0.453-0.319s-0.228-0.306-0.301-0.501c-0.074-0.195-0.11-0.415-0.11-0.659
		c0-0.211,0.035-0.413,0.106-0.605c0.07-0.192,0.17-0.363,0.3-0.511c0.13-0.148,0.285-0.267,0.466-0.354
		c0.181-0.088,0.382-0.132,0.603-0.132c0.162,0,0.315,0.027,0.458,0.082c0.144,0.055,0.27,0.137,0.379,0.246
		c0.108,0.109,0.194,0.248,0.257,0.415C62.118,52.364,62.149,52.559,62.149,52.782z M60.966,51.692
		c-0.229,0-0.417,0.069-0.566,0.206s-0.247,0.359-0.294,0.667h1.492c0-0.105-0.011-0.209-0.034-0.314
		c-0.023-0.104-0.06-0.197-0.11-0.28c-0.051-0.083-0.116-0.15-0.196-0.201C61.178,51.718,61.081,51.692,60.966,51.692z"/>
	<path fill="#FFFFFF" d="M65.404,53.9c0,0.078,0,0.153-0.001,0.223s-0.006,0.134-0.016,0.19l0.491-0.023v0.261h-1.491v-0.196
		c0.101-0.004,0.184-0.022,0.25-0.056c0.065-0.033,0.117-0.079,0.156-0.138c0.038-0.059,0.064-0.129,0.08-0.211
		c0.016-0.082,0.023-0.175,0.023-0.278l-0.005-2.835h-0.012l-0.703,0.466l-0.117-0.176l1.143-0.873h0.197L65.404,53.9z"/>
	<path fill="#FFFFFF" d="M66.961,54.097c0.014,0.043,0.035,0.084,0.063,0.123c0.029,0.039,0.067,0.073,0.114,0.103
		c0.048,0.029,0.106,0.053,0.174,0.07c0.069,0.018,0.15,0.026,0.243,0.026c0.148,0,0.276-0.032,0.384-0.097
		c0.107-0.064,0.199-0.149,0.274-0.255s0.136-0.226,0.183-0.362c0.047-0.136,0.083-0.276,0.109-0.42
		c0.025-0.145,0.042-0.287,0.051-0.426s0.012-0.267,0.01-0.382c-0.049,0.066-0.106,0.13-0.171,0.19
		c-0.064,0.061-0.138,0.114-0.22,0.16c-0.082,0.046-0.172,0.083-0.271,0.11s-0.206,0.041-0.32,0.041
		c-0.156,0-0.295-0.019-0.416-0.057c-0.121-0.038-0.227-0.09-0.317-0.155s-0.167-0.142-0.229-0.23s-0.112-0.181-0.151-0.28
		s-0.067-0.2-0.084-0.305s-0.025-0.208-0.025-0.309c0-0.195,0.032-0.377,0.097-0.546c0.065-0.169,0.157-0.316,0.277-0.441
		S67,50.432,67.171,50.36c0.17-0.071,0.361-0.107,0.573-0.107c0.274,0,0.5,0.055,0.679,0.164s0.318,0.26,0.421,0.453
		s0.174,0.419,0.214,0.681s0.06,0.544,0.06,0.847c0,0.146-0.007,0.303-0.021,0.47s-0.041,0.333-0.08,0.5s-0.094,0.326-0.166,0.48
		c-0.072,0.154-0.164,0.29-0.277,0.407s-0.251,0.211-0.413,0.283c-0.162,0.071-0.354,0.108-0.577,0.11
		c-0.192,0.002-0.355-0.021-0.49-0.069s-0.244-0.108-0.329-0.182c-0.085-0.073-0.147-0.153-0.186-0.24s-0.059-0.17-0.059-0.25
		c0-0.086,0.021-0.159,0.064-0.218s0.106-0.091,0.19-0.095c0.048-0.002,0.088,0.005,0.122,0.022s0.061,0.038,0.082,0.064
		c0.021,0.026,0.036,0.055,0.045,0.086c0.01,0.031,0.015,0.06,0.015,0.085C67.039,53.933,67.013,54.015,66.961,54.097z
		 M67.707,52.708c0.091,0,0.182-0.018,0.273-0.054c0.09-0.036,0.174-0.084,0.251-0.145s0.145-0.13,0.203-0.209
		s0.101-0.163,0.127-0.25c-0.01-0.188-0.03-0.375-0.062-0.561s-0.08-0.354-0.146-0.502c-0.065-0.148-0.151-0.269-0.257-0.362
		c-0.106-0.093-0.238-0.139-0.396-0.139c-0.125,0-0.236,0.028-0.332,0.085s-0.174,0.133-0.237,0.229
		c-0.063,0.096-0.111,0.205-0.143,0.328s-0.048,0.251-0.048,0.384c0,0.074,0.003,0.156,0.011,0.245
		c0.007,0.089,0.021,0.177,0.042,0.265s0.048,0.173,0.084,0.256c0.037,0.083,0.083,0.157,0.14,0.221s0.126,0.116,0.206,0.154
		C67.504,52.689,67.599,52.708,67.707,52.708z"/>
	<path fill="#FFFFFF" d="M71.848,53.898c0,0.082-0.001,0.158-0.003,0.229s-0.009,0.136-0.02,0.196l0.452-0.018v0.246h-1.475v-0.199
		h0.045c0.099-0.008,0.179-0.031,0.24-0.069s0.108-0.09,0.143-0.155c0.034-0.065,0.057-0.143,0.068-0.233
		c0.012-0.09,0.017-0.189,0.017-0.299v-0.202h-1.78v-0.296l2.115-2.845h0.197v2.78l0.591,0.006v0.354h-0.591V53.898z M69.921,53.004
		l1.395,0.018v-1.913h-0.011L69.921,53.004z"/>
	<path fill="#FFFFFF" d="M73.419,54.002c0.011,0.074,0.042,0.138,0.094,0.191c0.051,0.054,0.112,0.097,0.183,0.13
		c0.07,0.033,0.146,0.057,0.226,0.071c0.08,0.015,0.154,0.02,0.223,0.016c0.143-0.006,0.265-0.038,0.367-0.097
		s0.186-0.134,0.251-0.228s0.114-0.2,0.145-0.319c0.03-0.119,0.045-0.242,0.045-0.369c0-0.074-0.003-0.155-0.01-0.243
		c-0.007-0.087-0.021-0.175-0.042-0.263s-0.052-0.172-0.093-0.253c-0.041-0.081-0.095-0.153-0.162-0.217
		c-0.067-0.063-0.149-0.113-0.247-0.15s-0.216-0.056-0.353-0.056c-0.049,0-0.108,0.005-0.177,0.015
		c-0.068,0.01-0.139,0.023-0.21,0.041s-0.142,0.04-0.21,0.066c-0.069,0.026-0.128,0.056-0.177,0.089l-0.163-0.155l-0.014-1.922
		h1.521c0.11,0,0.203-0.008,0.277-0.023s0.134-0.039,0.179-0.07s0.077-0.071,0.096-0.12s0.029-0.107,0.029-0.176h0.163l-0.034,0.794
		l-1.96,0.041l0.003,1.318c0.095-0.039,0.217-0.077,0.366-0.113c0.149-0.036,0.31-0.054,0.483-0.054c0.24,0,0.445,0.04,0.616,0.119
		c0.171,0.079,0.31,0.183,0.417,0.311c0.107,0.128,0.187,0.272,0.237,0.432c0.05,0.16,0.076,0.321,0.076,0.483
		c0,0.223-0.04,0.418-0.119,0.587s-0.185,0.311-0.317,0.425s-0.285,0.2-0.458,0.258s-0.355,0.086-0.546,0.086
		c-0.187,0-0.354-0.026-0.5-0.078s-0.271-0.118-0.372-0.198s-0.178-0.168-0.231-0.265s-0.08-0.189-0.08-0.277
		c0-0.09,0.023-0.167,0.069-0.23c0.045-0.063,0.112-0.097,0.2-0.101c0.054-0.002,0.098,0.006,0.133,0.023
		c0.035,0.018,0.063,0.04,0.084,0.067c0.021,0.027,0.036,0.058,0.044,0.091c0.008,0.033,0.013,0.063,0.013,0.09
		c0,0.039-0.005,0.079-0.017,0.12C73.454,53.932,73.438,53.969,73.419,54.002z"/>
</g>
</svg>
