<?xml version="1.0" encoding="utf-8"?>
<!-- Generator: Adobe Illustrator 16.0.0, SVG Export Plug-In . SVG Version: 6.00 Build 0)  -->
<!DOCTYPE svg PUBLIC "-//W3C//DTD SVG 1.1//EN" "http://www.w3.org/Graphics/SVG/1.1/DTD/svg11.dtd">
<svg version="1.1" id="Capa_1" xmlns="http://www.w3.org/2000/svg" xmlns:xlink="http://www.w3.org/1999/xlink" x="0px" y="0px"
	 width="135.75px" height="25.253px" viewBox="0 0 135.75 25.253" xml:space="preserve">
<rect fill="transparent" width="135.75" height="25.253"/>
<g>
	<path fill="#FFFFFF" d="M6.885,21.426c-0.406-0.032-0.784-0.136-1.135-0.312c-0.351-0.176-0.655-0.404-0.913-0.684
		c-0.257-0.28-0.46-0.608-0.608-0.984c-0.148-0.376-0.223-0.772-0.223-1.188V15.33c-0.078-0.272-0.199-0.504-0.363-0.696
		c-0.164-0.192-0.394-0.32-0.69-0.384c0.062-0.112,0.141-0.208,0.234-0.288c0.078-0.08,0.184-0.147,0.316-0.204
		c0.132-0.056,0.3-0.084,0.503-0.084v-7.44c0-0.416,0.074-0.812,0.223-1.188C4.376,4.67,4.579,4.342,4.836,4.062
		c0.258-0.28,0.562-0.508,0.913-0.684c0.351-0.176,0.729-0.28,1.135-0.312h4.424h0.047c0.421,0,0.819,0.084,1.194,0.252
		c0.375,0.168,0.702,0.396,0.983,0.684C13.814,4.29,14.036,4.625,14.2,5.01c0.164,0.384,0.246,0.792,0.246,1.224v12.024
		c0,0.432-0.082,0.84-0.246,1.224c-0.164,0.384-0.386,0.72-0.667,1.008c-0.281,0.288-0.609,0.516-0.983,0.684
		s-0.772,0.252-1.194,0.252h-0.047H7.143H7.096H6.885z M7.143,16.89c0,0.368,0.125,0.68,0.375,0.936
		c0.25,0.256,0.554,0.384,0.913,0.384h1.896c0.265,0,0.495-0.1,0.69-0.3c0.195-0.2,0.292-0.436,0.292-0.708v-9.6
		c0-0.368-0.129-0.684-0.386-0.948C10.666,6.39,10.35,6.266,9.975,6.282H8.477C8.102,6.266,7.786,6.39,7.529,6.654
		c-0.258,0.264-0.386,0.58-0.386,0.948V16.89z"/>
	<path fill="#FFFFFF" d="M17.98,15.45c-0.078-0.272-0.199-0.508-0.363-0.708c-0.164-0.2-0.394-0.324-0.69-0.372
		c0.062-0.112,0.141-0.208,0.234-0.288c0.078-0.08,0.184-0.147,0.316-0.204c0.132-0.056,0.3-0.084,0.503-0.084V3.065h3.137v15.144
		h6.063v3.216h-6.063H17.98v-3.216V15.45z"/>
	<path fill="#FFFFFF" d="M30.27,15.498c-0.094-0.272-0.219-0.508-0.375-0.708c-0.156-0.2-0.382-0.324-0.679-0.372
		c0.062-0.112,0.141-0.208,0.234-0.288c0.078-0.08,0.184-0.147,0.316-0.204c0.132-0.056,0.3-0.084,0.503-0.084V6.33V3.114h7.304
		h0.023c0.437,0,0.843,0.084,1.217,0.252s0.702,0.396,0.983,0.684c0.281,0.288,0.503,0.624,0.667,1.008
		c0.164,0.384,0.246,0.792,0.246,1.224v12.024c0,0.432-0.082,0.84-0.246,1.224c-0.164,0.384-0.386,0.72-0.667,1.008
		c-0.281,0.288-0.608,0.516-0.983,0.684s-0.781,0.252-1.217,0.252h-0.023h-4.167H30.27v-3.216V15.498z M33.407,18.258h2.863
		c0.357,0,0.664-0.128,0.919-0.384c0.256-0.256,0.384-0.568,0.384-0.936V7.649c0-0.368-0.128-0.68-0.384-0.936
		C36.934,6.458,36.627,6.33,36.27,6.33h-2.863V18.258z"/>
	<path fill="#FFFFFF" d="M59.858,21.426h0.023H59.858h-3.113L53.772,9.833v11.592h-3.137V15.33
		c-0.078-0.272-0.195-0.504-0.351-0.696c-0.156-0.192-0.39-0.32-0.702-0.384c0.062-0.112,0.141-0.208,0.234-0.288
		c0.078-0.08,0.184-0.147,0.316-0.204c0.132-0.056,0.3-0.084,0.503-0.084V3.065h1.405h1.732h1.405l3.137,12.24l3.113-12.24h1.405
		h1.732h1.405v18.36h-3.137V9.833L59.858,21.426z"/>
	<path fill="#FFFFFF" d="M76.9,17.562H72.92l-0.679,3.912h-3.16l1.053-6.168l-0.023,0.024c-0.094-0.272-0.219-0.508-0.375-0.708
		c-0.156-0.2-0.39-0.332-0.702-0.396c0.062-0.112,0.14-0.208,0.234-0.288c0.078-0.08,0.188-0.147,0.328-0.204
		c0.141-0.056,0.312-0.084,0.515-0.084c0.047,0,0.097,0.004,0.152,0.012c0.054,0.008,0.097,0.012,0.128,0.012l1.826-10.752h0.843
		h1.357h0.96h1.404h0.796l3.161,18.552h-3.184L76.9,17.562z M76.361,14.346L74.98,6.162H74.84l-1.381,8.184H76.361z"/>
	<path fill="#FFFFFF" d="M91.858,3.114c0.421,0,0.819,0.084,1.194,0.252s0.702,0.396,0.983,0.684
		c0.281,0.288,0.503,0.624,0.667,1.008s0.246,0.792,0.246,1.224v4.824c0,0.432-0.082,0.84-0.246,1.224
		c-0.164,0.384-0.386,0.72-0.667,1.008c-0.281,0.288-0.609,0.516-0.983,0.684s-0.772,0.252-1.194,0.252v0.024l2.13,7.176h-3.113
		l-2.13-7.08h-1.1v7.08h-3.137v-5.976c-0.079-0.272-0.199-0.508-0.363-0.708c-0.164-0.2-0.394-0.324-0.69-0.372
		c0.063-0.112,0.141-0.208,0.234-0.288c0.078-0.08,0.183-0.147,0.316-0.204c0.132-0.056,0.3-0.084,0.503-0.084V6.33V3.114h7.303
		l0.047,0.096V3.114z M87.645,11.178h3.066c0.312,0,0.581-0.116,0.808-0.348c0.226-0.232,0.339-0.508,0.339-0.828v-2.52
		c0-0.32-0.113-0.592-0.339-0.816c-0.227-0.224-0.496-0.336-0.808-0.336h-3.066V11.178z"/>
	<path fill="#FFFFFF" d="M102.86,14.346h-1.499v7.08h-3.137V15.45c-0.078-0.272-0.195-0.508-0.351-0.708
		c-0.156-0.2-0.39-0.324-0.702-0.372c0.062-0.112,0.141-0.208,0.234-0.288c0.078-0.08,0.184-0.147,0.316-0.204
		c0.132-0.056,0.3-0.084,0.503-0.084V3.065h3.137v8.064h1.17l2.903-8.064h3.137l-3.254,9l2.786,9.36h-3.137L102.86,14.346z"/>
	<path fill="#FFFFFF" d="M110.819,14.813c-0.156-0.2-0.39-0.324-0.702-0.372c0.062-0.111,0.141-0.208,0.234-0.288
		c0.078-0.08,0.184-0.148,0.316-0.204c0.132-0.056,0.3-0.084,0.503-0.084v-2.664V6.354V3.138h9.2v3.216h-6.063v4.848h3.746v3.216
		h-3.746v3.864h6.063v3.216h-9.2v-3.216v-2.76C111.092,15.25,110.975,15.014,110.819,14.813z"/>
	<path fill="#FFFFFF" d="M129.5,3.114h3.043V6.33H129.5v15.144h-3.137v-5.976c-0.078-0.272-0.195-0.508-0.351-0.708
		c-0.156-0.2-0.39-0.324-0.702-0.372c0.062-0.112,0.141-0.208,0.234-0.288c0.078-0.08,0.184-0.147,0.316-0.204
		c0.132-0.056,0.3-0.084,0.503-0.084V6.33h-3.02V3.114h3.02H129.5z"/>
</g>
</svg>
